<svg width="32" height="33" viewBox="0 0 32 33" fill="none" xmlns="http://www.w3.org/2000/svg">
<g clip-path="url(#clip0_9112_852)">
<path d="M32.0405 15.8265C32.0405 15.1588 31.9692 14.4989 31.8243 13.8468C31.8176 13.7727 31.817 13.698 31.803 13.625C31.3672 11.3257 30.4691 9.22186 29.119 7.31236C28.3614 6.24191 27.501 5.26244 26.485 4.42731C26.4182 4.36329 26.3547 4.29533 26.2839 4.23692C23.4719 1.91855 20.2488 0.665577 16.6044 0.514501C15.5862 0.47238 14.5702 0.51731 13.5655 0.71163C13.4818 0.71837 13.397 0.71837 13.315 0.733533C11.1696 1.13846 9.15396 1.88093 7.33263 3.09964C3.43217 5.70893 1.01889 9.31959 0.227007 13.9479C-0.306533 17.0666 0.10345 20.092 1.42494 22.9878C4.42175 29.5542 11.6161 33.8888 19.4086 32.0916C25.656 30.6505 29.6756 26.681 31.5306 20.5453C31.9945 19.0109 32.1197 17.4266 32.0405 15.8265ZM30.3596 20.2083C28.6618 25.674 25.1444 29.4076 19.5563 30.7679C13.329 32.2831 8.17786 30.2495 4.23417 25.2376C2.19043 22.6407 1.15761 19.6405 1.21827 16.3224C1.29409 12.1973 2.90425 8.71304 5.85725 5.86225C7.85774 3.93084 10.2368 2.65933 12.9623 2.0584C12.9977 2.05053 13.0303 2.03144 13.0645 2.0174C13.0802 2.032 13.0965 2.04323 13.1134 2.05166C13.1285 2.03256 13.1448 2.01628 13.1622 2.00392C13.8328 1.91294 14.5006 1.79612 15.1779 1.75962C19.0301 1.55519 22.4312 2.71212 25.4157 5.13945C26.3777 5.92178 27.2331 6.81588 27.952 7.81332C29.4335 9.8711 30.4495 12.1367 30.7606 14.6848C30.8729 15.6013 30.8875 16.5185 30.8606 17.4384H30.8589C30.8589 17.4384 30.8538 17.4412 30.851 17.4434C30.8538 17.4474 30.8566 17.4513 30.86 17.4547C30.7584 18.3847 30.6382 19.3125 30.3596 20.2083Z" fill="white"/>
<path d="M28.4877 16.3248C24.4042 12.2733 20.3184 8.22395 16.2388 4.16849C16.0815 4.01236 16.004 3.98541 15.8299 4.15951C12.8461 7.14115 9.85429 10.115 6.86366 13.0904C5.78367 14.1648 4.70199 15.2381 3.62087 16.3119C3.49226 16.3933 3.38667 16.4781 3.57481 16.6084C3.74049 16.7662 3.90617 16.9235 4.07185 17.0813C4.14711 17.1633 4.21899 17.2487 4.29762 17.3273C8.12899 21.1384 11.9632 24.9479 15.7895 28.7652C15.9782 28.9534 16.0692 28.991 16.2809 28.7787C18.4724 26.5805 20.679 24.397 22.8788 22.2066C23.7859 21.3036 24.6856 20.3937 25.5887 19.4867C26.576 18.5179 27.5616 17.5474 28.5523 16.5826C28.6978 16.4405 28.5557 16.3927 28.4877 16.3248ZM16.6437 26.4823V23.9022C16.6426 22.9761 16.6426 22.0494 16.6415 21.1233V21.1025C16.6409 20.6234 16.6409 20.1449 16.6398 19.6664V19.6462C16.6392 19.1144 16.6387 18.5825 16.6375 18.0507V18.045C16.6375 17.8311 16.637 17.6176 16.6364 17.4037V17.3806C16.6364 17.2397 16.6426 17.1549 16.8465 17.1554C18.8419 17.1616 20.8373 17.1627 22.8322 17.1633H22.8491C23.8403 17.1633 24.8316 17.1633 25.8228 17.1639C25.8577 17.1639 25.8925 17.17 25.9902 17.1785C22.8895 20.3089 19.7995 23.3799 16.6437 26.4823ZM16.646 6.55819C16.7707 6.59582 16.8364 6.68736 16.9116 6.76093C17.9343 7.76286 18.9554 8.76704 19.9775 9.76953C20.0438 9.83468 20.1157 9.89365 20.1847 9.95543C20.2179 9.988 20.251 10.02 20.2842 10.0521C20.4038 10.2026 20.538 10.339 20.6924 10.4542C20.711 10.5036 20.7447 10.5379 20.7947 10.5553C20.8199 10.612 20.8604 10.653 20.9177 10.6766C21.3759 11.1416 21.8297 11.6106 22.2925 12.0711C23.2916 13.064 24.2952 14.053 25.2966 15.0432C25.3185 15.0993 25.3573 15.1392 25.4134 15.1611C25.432 15.2139 25.4673 15.2499 25.5201 15.2684C25.542 15.3251 25.5808 15.3644 25.6375 15.3863C25.6566 15.4386 25.692 15.4739 25.7442 15.493C25.806 15.5711 25.8678 15.6486 25.9284 15.725C25.8689 15.7997 25.7981 15.7677 25.7386 15.7677C22.8098 15.7682 19.8803 15.7643 16.9515 15.7705C16.7201 15.771 16.6359 15.7385 16.637 15.4734C16.6415 13.9896 16.642 12.5052 16.6409 11.0214V11.0057C16.6448 10.8018 16.6493 10.6002 16.6595 10.3963C16.6684 10.2059 16.6538 10.0133 16.6404 9.82008V9.80491C16.6392 8.77434 16.6376 7.74433 16.637 6.71376C16.637 6.66883 16.642 6.62334 16.646 6.55819ZM15.3059 6.66209C15.3408 6.72667 15.3531 6.80081 15.3498 6.88954C15.3481 6.93279 15.3453 6.9912 15.3593 7.03613V7.66009C15.3172 7.7286 15.3492 7.82689 15.3492 7.90102C15.343 10.4463 15.3441 12.9916 15.3441 15.5368C15.3441 15.5784 15.3464 15.6194 15.3514 15.6587C15.334 15.7306 15.2835 15.7733 15.138 15.7727C12.2109 15.7637 9.28368 15.7665 6.35596 15.7665H6.1431C9.20056 12.6962 12.2142 9.68529 15.3059 6.66209ZM15.3604 26.2801C15.3604 26.3048 15.352 26.3289 15.3391 26.4036C12.2255 23.3546 9.17698 20.2915 6.09031 17.161H7.71676C10.1767 17.161 12.6371 17.1622 15.0976 17.1594C15.2627 17.1594 15.3672 17.1526 15.3666 17.3834C15.3576 20.3488 15.361 23.3142 15.3604 26.2801Z" fill="white"/>
<path d="M11.5802 26.0403C10.9725 26.0425 10.3643 26.0464 9.75659 26.033C7.90437 25.9908 6.57445 24.6469 6.55142 22.7975C6.54412 22.1898 6.54918 21.5821 6.54693 20.9739C6.54693 20.8829 6.5649 20.7863 6.4874 20.7105C6.12908 20.3612 5.77245 20.0113 5.37314 19.6204C5.42256 20.8037 5.34506 21.9258 5.42032 23.0474C5.57701 25.3731 7.32646 27.0939 9.65381 27.1663C10.7096 27.1989 11.7672 27.1759 12.8241 27.177C12.8657 27.177 12.9191 27.1927 12.946 27.1242C12.6102 26.8069 12.2693 26.4896 11.9345 26.1655C11.8318 26.0655 11.7183 26.0397 11.5802 26.0403Z" fill="white"/>
<path d="M20.5155 6.96438C21.1052 6.95764 21.6944 6.95483 22.2835 6.96663C23.9673 6.9992 25.3612 8.26172 25.5443 9.93704C25.6173 10.607 25.5578 11.2832 25.5679 11.9561C25.569 12.0482 25.537 12.1498 25.6004 12.229C25.9329 12.639 26.3204 12.9939 26.7186 13.3522C26.704 12.1161 26.8304 10.8912 26.6456 9.67644C26.3474 7.7119 24.8215 6.14554 22.9434 5.89786C21.6899 5.73219 20.4268 5.87315 19.1682 5.82036C19.4911 6.16239 19.7978 6.47802 20.0932 6.8032C20.2123 6.93405 20.3465 6.96663 20.5155 6.96438Z" fill="white"/>
<path d="M6.40036 12.3262C6.51324 12.2099 6.54862 12.0835 6.54582 11.924C6.53627 11.3911 6.53571 10.8581 6.53964 10.3251C6.5548 8.41334 7.94929 7.00143 9.86273 6.96605C10.4423 6.95594 11.0219 6.96773 11.6015 6.96717C11.6846 6.96717 11.8003 6.98739 11.8458 6.94302C12.2109 6.58077 12.563 6.20617 12.9112 5.84224C11.8087 5.84224 10.695 5.79507 9.58642 5.85235C7.3916 5.96636 5.65846 7.65796 5.43044 9.84603C5.31025 11.0024 5.4091 12.1627 5.42538 13.3556C5.75 13.0119 6.07125 12.6654 6.40036 12.3262Z" fill="white"/>
<path d="M26.7119 21.5233C26.7214 20.9032 26.7141 20.2832 26.7141 19.593C26.3581 19.9597 26.0233 20.2501 25.7425 20.5949C25.5802 20.6926 25.5415 20.8398 25.5409 21.0229C25.5398 21.7805 25.6128 22.5437 25.51 23.2946C25.2977 24.8464 24.0375 25.9651 22.4554 26.0303C21.7921 26.0578 21.1271 26.0359 20.4627 26.037C20.3617 26.0376 20.26 26.0196 20.1752 26.1078C19.8354 26.4599 19.4911 26.8081 19.1165 27.1906C20.3869 27.1591 21.6191 27.2389 22.8496 27.1366C23.0164 27.1232 23.1832 27.0883 23.3467 27.0513C25.1826 26.6329 26.6344 24.9154 26.6563 23.139C26.667 23.1132 26.6782 23.0885 26.6782 23.0593V23.0121C26.754 22.5179 26.7046 22.0192 26.7119 21.5233Z" fill="white"/>
</g>
<defs>
<clipPath id="clip0_9112_852">
<rect width="32" height="33" fill="white"/>
</clipPath>
</defs>
</svg>
